<mxfile host="app.diagrams.net" agent="Mozilla/5.0 (Windows NT 10.0; Win64; x64) AppleWebKit/537.36 (KHTML, like Gecko) Chrome/132.0.0.0 Safari/537.36" version="26.0.14">
  <diagram name="第 1 页" id="fMnlVaXsFUSDIGB9OUw1">
    <mxGraphModel dx="1434" dy="738" grid="1" gridSize="10" guides="1" tooltips="1" connect="1" arrows="1" fold="1" page="1" pageScale="1" pageWidth="827" pageHeight="1169" math="0" shadow="0">
      <root>
        <mxCell id="0" />
        <mxCell id="1" parent="0" />
        <mxCell id="M7822Svu9vLjhCwTLM9i-3" style="edgeStyle=orthogonalEdgeStyle;rounded=0;orthogonalLoop=1;jettySize=auto;html=1;exitX=1;exitY=0.5;exitDx=0;exitDy=0;entryX=0;entryY=0.5;entryDx=0;entryDy=0;" parent="1" source="M7822Svu9vLjhCwTLM9i-1" target="M7822Svu9vLjhCwTLM9i-2" edge="1">
          <mxGeometry relative="1" as="geometry" />
        </mxCell>
        <mxCell id="M7822Svu9vLjhCwTLM9i-1" value="DrawCardOnce" style="rounded=0;whiteSpace=wrap;html=1;" parent="1" vertex="1">
          <mxGeometry x="10" y="420" width="120" height="60" as="geometry" />
        </mxCell>
        <mxCell id="M7822Svu9vLjhCwTLM9i-5" value="" style="edgeStyle=orthogonalEdgeStyle;rounded=0;orthogonalLoop=1;jettySize=auto;html=1;" parent="1" source="M7822Svu9vLjhCwTLM9i-2" target="M7822Svu9vLjhCwTLM9i-4" edge="1">
          <mxGeometry relative="1" as="geometry" />
        </mxCell>
        <mxCell id="M7822Svu9vLjhCwTLM9i-6" value="是" style="edgeLabel;html=1;align=center;verticalAlign=middle;resizable=0;points=[];" parent="M7822Svu9vLjhCwTLM9i-5" vertex="1" connectable="0">
          <mxGeometry x="-0.2" relative="1" as="geometry">
            <mxPoint as="offset" />
          </mxGeometry>
        </mxCell>
        <mxCell id="M7822Svu9vLjhCwTLM9i-2" value="卡池是否开放" style="rhombus;whiteSpace=wrap;html=1;" parent="1" vertex="1">
          <mxGeometry x="180" y="410" width="100" height="80" as="geometry" />
        </mxCell>
        <mxCell id="M7822Svu9vLjhCwTLM9i-10" value="" style="edgeStyle=orthogonalEdgeStyle;rounded=0;orthogonalLoop=1;jettySize=auto;html=1;" parent="1" source="M7822Svu9vLjhCwTLM9i-4" target="M7822Svu9vLjhCwTLM9i-9" edge="1">
          <mxGeometry relative="1" as="geometry" />
        </mxCell>
        <mxCell id="M7822Svu9vLjhCwTLM9i-11" value="足够" style="edgeLabel;html=1;align=center;verticalAlign=middle;resizable=0;points=[];" parent="M7822Svu9vLjhCwTLM9i-10" vertex="1" connectable="0">
          <mxGeometry x="-0.2667" y="2" relative="1" as="geometry">
            <mxPoint as="offset" />
          </mxGeometry>
        </mxCell>
        <mxCell id="M7822Svu9vLjhCwTLM9i-4" value="检查今日总抽卡次数" style="rhombus;whiteSpace=wrap;html=1;" parent="1" vertex="1">
          <mxGeometry x="320" y="410" width="150" height="80" as="geometry" />
        </mxCell>
        <mxCell id="M7822Svu9vLjhCwTLM9i-14" value="" style="edgeStyle=orthogonalEdgeStyle;rounded=0;orthogonalLoop=1;jettySize=auto;html=1;" parent="1" source="M7822Svu9vLjhCwTLM9i-9" target="M7822Svu9vLjhCwTLM9i-13" edge="1">
          <mxGeometry relative="1" as="geometry" />
        </mxCell>
        <mxCell id="M7822Svu9vLjhCwTLM9i-9" value="扣除道具" style="whiteSpace=wrap;html=1;" parent="1" vertex="1">
          <mxGeometry x="530" y="420" width="120" height="60" as="geometry" />
        </mxCell>
        <mxCell id="M7822Svu9vLjhCwTLM9i-16" value="" style="edgeStyle=orthogonalEdgeStyle;rounded=0;orthogonalLoop=1;jettySize=auto;html=1;" parent="1" source="M7822Svu9vLjhCwTLM9i-13" target="M7822Svu9vLjhCwTLM9i-15" edge="1">
          <mxGeometry relative="1" as="geometry" />
        </mxCell>
        <mxCell id="M7822Svu9vLjhCwTLM9i-13" value="DrawCard" style="whiteSpace=wrap;html=1;" parent="1" vertex="1">
          <mxGeometry x="530" y="540" width="120" height="60" as="geometry" />
        </mxCell>
        <mxCell id="M7822Svu9vLjhCwTLM9i-18" value="" style="edgeStyle=orthogonalEdgeStyle;rounded=0;orthogonalLoop=1;jettySize=auto;html=1;" parent="1" source="M7822Svu9vLjhCwTLM9i-15" target="M7822Svu9vLjhCwTLM9i-17" edge="1">
          <mxGeometry relative="1" as="geometry" />
        </mxCell>
        <mxCell id="M7822Svu9vLjhCwTLM9i-15" value="添加道具" style="whiteSpace=wrap;html=1;" parent="1" vertex="1">
          <mxGeometry x="530" y="650" width="120" height="60" as="geometry" />
        </mxCell>
        <mxCell id="M7822Svu9vLjhCwTLM9i-20" value="" style="edgeStyle=orthogonalEdgeStyle;rounded=0;orthogonalLoop=1;jettySize=auto;html=1;" parent="1" source="M7822Svu9vLjhCwTLM9i-17" target="M7822Svu9vLjhCwTLM9i-19" edge="1">
          <mxGeometry relative="1" as="geometry" />
        </mxCell>
        <mxCell id="M7822Svu9vLjhCwTLM9i-17" value="填充消息" style="whiteSpace=wrap;html=1;" parent="1" vertex="1">
          <mxGeometry x="335" y="650" width="120" height="60" as="geometry" />
        </mxCell>
        <mxCell id="M7822Svu9vLjhCwTLM9i-22" value="" style="edgeStyle=orthogonalEdgeStyle;rounded=0;orthogonalLoop=1;jettySize=auto;html=1;" parent="1" source="M7822Svu9vLjhCwTLM9i-19" target="M7822Svu9vLjhCwTLM9i-21" edge="1">
          <mxGeometry relative="1" as="geometry" />
        </mxCell>
        <mxCell id="M7822Svu9vLjhCwTLM9i-19" value="埋点" style="whiteSpace=wrap;html=1;" parent="1" vertex="1">
          <mxGeometry x="170" y="650" width="120" height="60" as="geometry" />
        </mxCell>
        <mxCell id="M7822Svu9vLjhCwTLM9i-21" value="当前帧存档" style="whiteSpace=wrap;html=1;" parent="1" vertex="1">
          <mxGeometry x="10" y="650" width="120" height="60" as="geometry" />
        </mxCell>
      </root>
    </mxGraphModel>
  </diagram>
</mxfile>
